<svg width="47" height="22" fill="none" xmlns="http://www.w3.org/2000/svg"><path d="M7.22 21.272c-2.044 0-3.744-.678-5.1-2.035C.78 17.862.112 16.19.112 14.218c0-1.971.67-3.635 2.008-4.992 1.356-1.374 3.056-2.062 5.1-2.062 2.026 0 3.708.688 5.046 2.062 1.357 1.357 2.035 3.02 2.035 4.992 0 1.971-.678 3.644-2.035 5.019-1.338 1.357-3.02 2.035-5.046 2.035ZM3.802 17.69c.886.94 2.026 1.41 3.418 1.41 1.393 0 2.523-.47 3.391-1.41.868-.94 1.303-2.098 1.303-3.473 0-1.374-.434-2.532-1.303-3.473-.868-.94-1.998-1.41-3.39-1.41-1.393 0-2.533.47-3.42 1.41-.867.941-1.301 2.099-1.301 3.473 0 1.375.434 2.532 1.302 3.473Zm16.918 3.582c-1.248 0-2.342-.263-3.283-.787-.94-.543-1.618-1.33-2.034-2.36l1.899-1.058a3.051 3.051 0 0 0 1.33 1.573c.632.38 1.337.57 2.115.57.67 0 1.23-.163 1.682-.489.452-.325.679-.768.679-1.329 0-.488-.181-.895-.543-1.22-.344-.326-.95-.625-1.818-.896l-1.356-.434C17.13 14.191 16 12.871 16 10.882c0-1.122.443-2.018 1.329-2.687.904-.687 2.017-1.03 3.337-1.03 2.062 0 3.554.786 4.476 2.36l-1.736 1.193c-.742-1.03-1.682-1.546-2.822-1.546-.614 0-1.148.154-1.6.461-.434.29-.651.678-.651 1.167 0 .452.135.84.407 1.166.289.308.795.57 1.519.787l1.492.461c2.46.76 3.69 2.09 3.69 3.988 0 1.266-.444 2.261-1.33 2.984-.868.724-1.998 1.086-3.39 1.086ZM27.837 21V.653h2.333V21h-2.333Zm11.779.272c-2.044 0-3.744-.678-5.1-2.035-1.34-1.375-2.008-3.047-2.008-5.019 0-1.971.669-3.635 2.007-4.992 1.357-1.374 3.057-2.062 5.1-2.062 2.026 0 3.708.688 5.047 2.062 1.356 1.357 2.034 3.02 2.034 4.992 0 1.971-.678 3.644-2.034 5.019-1.339 1.357-3.02 2.035-5.046 2.035Zm-3.419-3.581c.887.94 2.026 1.41 3.419 1.41 1.392 0 2.523-.47 3.39-1.41.869-.94 1.303-2.098 1.303-3.473 0-1.374-.434-2.532-1.302-3.473-.868-.94-1.999-1.41-3.391-1.41-1.393 0-2.532.47-3.419 1.41-.868.941-1.302 2.099-1.302 3.473 0 1.375.434 2.532 1.302 3.473Z" fill="#fff"/></svg>